<svg width="140" height="40" fill="none" xmlns="http://www.w3.org/2000/svg"><path d="M49.037 14.599c-.927.631-1.665 1.627-2.216 2.985-.233.486-.414 1.116-.539 1.89a.198.198 0 0 0-.002.032v7.269c0 .11.09.2.2.2h1.297a.2.2 0 0 0 .2-.2V22.58c0-2.021.103-3.4.306-4.133.275-.83.772-1.595 1.49-2.298.668-.653 1.341-.886 2.019-.701a.215.215 0 0 0 .241-.09l.667-1.083a.194.194 0 0 0-.072-.274 2.203 2.203 0 0 0-1.128-.283c-.847.067-1.536.248-2.463.88ZM112.164 8.89c-1.383.048-2.388.727-3.017 2.037-.408.68-.624 1.548-.648 2.606V26.82c0 .11.09.2.2.2h1.273a.2.2 0 0 0 .2-.2V16.753a.2.2 0 0 1 .2-.2h2.676a.2.2 0 0 0 .2-.2V15.32a.2.2 0 0 0-.2-.2h-2.664a.2.2 0 0 1-.2-.2v-1.103c.205-1.713.66-2.76 1.366-3.139.72-.339 1.451-.338 2.197.003a.21.21 0 0 0 .287-.115c.146-.405.272-.74.376-1.009a.193.193 0 0 0-.084-.242c-.774-.42-1.475-.424-2.162-.424ZM126.352 13.7a.2.2 0 0 0-.183.12l-4.079 9.466a.2.2 0 0 1-.367.002l-4.204-9.47a.2.2 0 0 0-.183-.119h-1.319a.2.2 0 0 0-.183.281l5.143 11.647a.2.2 0 0 1 .001.16l-2.33 5.361a.2.2 0 0 0 .183.28h1.321a.2.2 0 0 0 .183-.12l7.543-17.329a.2.2 0 0 0-.183-.28h-1.343ZM88.112 15.227c-.912-.695-1.7-1.165-2.368-1.41-.793-.3-1.677-.45-2.651-.45-1.155 0-2.259.302-3.312.906a6.534 6.534 0 0 0-2.468 2.463 6.654 6.654 0 0 0-.889 3.358c0 1.2.285 2.303.854 3.31.569 1.006 1.378 1.806 2.427 2.398a6.71 6.71 0 0 0 3.352.889 6.66 6.66 0 0 0 2.87-.64 6.198 6.198 0 0 0 1.914-1.392c.13-.14.378-.052.378.139v.08c0 1.437-.165 2.476-.495 3.116-.33.64-.886 1.172-1.668 1.598-.78.427-1.737.64-2.868.64-1.155 0-2.12-.206-2.893-.616-.743-.395-1.358-.997-1.845-1.807a.204.204 0 0 0-.174-.1H76.9a.196.196 0 0 0-.179.282c.428.88.895 1.56 1.4 2.04.558.528 1.276.951 2.157 1.267.879.316 1.877.474 2.992.474 1.509 0 2.803-.322 3.883-.966a5.157 5.157 0 0 0 2.269-2.754c.322-.844.483-2.179.483-4.003 0-3.093.007-4.804.022-5.133 0-.02-.001-.04-.006-.06-.44-1.784-1.043-2.994-1.809-3.63Zm-1.2 8.502c-.927.925-2.161 1.386-3.7 1.386-1.51 0-2.739-.466-3.689-1.397-.95-.931-1.425-2.112-1.425-3.541 0-.94.23-1.812.69-2.617a4.98 4.98 0 0 1 1.897-1.895 5.214 5.214 0 0 1 2.621-.687c.911 0 1.758.223 2.54.669a4.707 4.707 0 0 1 1.814 1.818c.43.765.642 1.638.642 2.617 0 1.508-.464 2.723-1.39 3.647ZM104.717 15.89c-1.321-1.682-3.076-2.523-5.267-2.523-2.145 0-3.854.821-5.126 2.464-1.006 1.287-1.51 2.755-1.51 4.405 0 1.745.594 3.31 1.78 4.696 1.187 1.385 2.832 2.078 4.938 2.078.951 0 1.803-.144 2.556-.432a6.355 6.355 0 0 0 2.039-1.26c.566-.518 1.063-1.19 1.492-2.02a.197.197 0 0 0-.083-.263l-1.052-.565a.203.203 0 0 0-.268.073c-.472.769-.913 1.33-1.32 1.684a5.146 5.146 0 0 1-1.586.919c-.62.232-1.261.35-1.92.35-1.36 0-2.503-.484-3.43-1.452-.884-.924-1.362-2.096-1.43-3.52a.196.196 0 0 1 .197-.204h11.202c.111 0 .2-.09.198-.201-.041-1.68-.512-3.09-1.41-4.23Zm-.466 2.75a.196.196 0 0 1-.191.246h-9.096a.196.196 0 0 1-.188-.253c.335-1.067.808-1.878 1.42-2.435.912-.821 2-1.232 3.264-1.232.77 0 1.505.164 2.204.492.699.328 1.262.758 1.685 1.29.384.483.686 1.114.902 1.891ZM56.828 14.006h-1.262a.2.2 0 0 0-.2.2v12.592c0 .11.09.2.2.2h1.261a.2.2 0 0 0 .2-.2V14.206a.2.2 0 0 0-.2-.2ZM35.665 9.412v17.362c0 .11.09.2.2.2h1.343a.2.2 0 0 0 .2-.2v-8.21c0-.11.09-.2.2-.2h4.278a.2.2 0 0 0 .2-.2v-1.328a.2.2 0 0 0-.2-.2h-4.278a.2.2 0 0 1-.2-.2V11.34c0-.11.09-.2.2-.2h7.484a.2.2 0 0 0 .2-.2V9.61a.2.2 0 0 0-.2-.2h-9.427ZM72.04 15.362c0 .188-.24.276-.368.138-.602-.65-1.261-1.15-1.976-1.499-.864-.422-1.81-.633-2.84-.633-1.822 0-3.382.667-4.678 2.001-1.297 1.334-1.945 2.953-1.945 4.856 0 1.87.653 3.469 1.957 4.796 1.304 1.326 2.875 1.99 4.713 1.99 1.052 0 2.04-.204 2.964-.61.923-.406 1.773-1.048 2.551-1.924.707-1.185 1.131-2.35 1.273-3.494V8.877c0-.11-.09-.198-.2-.198h-1.25a.2.2 0 0 0-.2.2v6.483Zm-1.367 8.533c-.99 1.01-2.2 1.516-3.629 1.516-.935 0-1.793-.23-2.575-.693a5.099 5.099 0 0 1-1.867-1.924 5.254 5.254 0 0 1-.696-2.63c0-.916.234-1.794.702-2.635a5.055 5.055 0 0 1 1.885-1.954 4.925 4.925 0 0 1 2.527-.693c.913 0 1.776.231 2.593.693a4.814 4.814 0 0 1 1.885 1.883c.44.794.66 1.68.66 2.659 0 1.509-.495 2.768-1.485 3.778ZM56.191 8.665c-.377 0-.699.135-.966.403-.267.269-.4.592-.4.972 0 .379.133.704.4.976.268.273.59.41.966.41.377 0 .703-.137.973-.41.27-.272.406-.598.406-.976 0-.38-.135-.703-.406-.972a1.335 1.335 0 0 0-.973-.403Z" fill="#000"/><path d="M15.136 7.712a1 1 0 0 0-1.418 0L1.977 19.513a1 1 0 0 0 0 1.41l11.741 11.801a1 1 0 0 0 1.418 0l11.742-11.8a1 1 0 0 0 0-1.41L15.136 7.711Zm0 18.613a1 1 0 0 1-1.418 0l-5.374-5.402a1 1 0 0 1 0-1.41l5.374-5.402a1 1 0 0 1 1.418 0l5.374 5.402a1 1 0 0 1 0 1.41l-5.374 5.402Z" fill="#F97316"/></svg>